# xmcd CD database file
#
# Track frame offsets:
#	183
#	37383
#	77330
#	117558
#	149090
#	190608
#	262608
#
# Disc length: 3589 seconds
#
# Revision: 1
# Processed by: cddbd v1.4PL0 Copyright (c) Steve Scherf et al.
# Submitted via: CDex 1.50beta8
#
DISCID=5d0e0307
DTITLE=Miles Davis - The Paris Concert
DYEAR=1967
DGENRE=Jazz
TTITLE0=Round About Midnight
TTITLE1=Mascalero
TTITLE2=I Fall In Love Too Easy
TTITLE3=Riot
TTITLE4=Walkin'
TTITLE5=On Green Dolphin Street
TTITLE6=Theme
EXTD=YEAR: 1967
EXTT0=
EXTT1=
EXTT2=
EXTT3=
EXTT4=
EXTT5=
EXTT6=
PLAYORDER=
